<?xml version="1.0" encoding="utf-8"?>
<!-- Generator: Adobe Illustrator 19.0.0, SVG Export Plug-In . SVG Version: 6.00 Build 0)  -->
<svg version="1.1" id="Capa_1" xmlns="http://www.w3.org/2000/svg" xmlns:xlink="http://www.w3.org/1999/xlink" x="0px" y="0px"
	 viewBox="-703 285 512 512" style="enable-background:new -703 285 512 512;" xml:space="preserve">
<style type="text/css">
	.st0{fill:#FFFFFF;}
</style>
<g>
	<g>
		<g>
			<polygon class="st0" points="-447,435.8 -447,503.1 -398.9,473.9 			"/>
			<path class="st0" d="M-447,285c-105.9,0-192,86.1-192,192v128c0,105.9,86.1,192,192,192s192-86.1,192-192V477
				C-255,371.1-341.1,285-447,285z M-348.3,620.9l-106.7,86.1c-3.9,3.1-8.6,4.7-13.4,4.7c-3.1,0-6.3-0.7-9.2-2.1
				c-7.4-3.5-12.1-11-12.1-19.2v-97.8l-27.2,27.2c-4.2,4.2-9.6,6.2-15.1,6.2c-5.5,0-10.9-2.1-15.1-6.2c-8.3-8.3-8.3-21.8,0-30.2
				l48.6-48.6l-49.1-49.7c-8.3-8.4-8.2-21.9,0.2-30.2c8.4-8.3,21.9-8.2,30.2,0.2l27.5,27.8v-97.4c0-8.2,4.7-15.6,12.1-19.2
				c7.4-3.6,16.1-2.6,22.5,2.5l106.7,84.6c5.5,4.3,8.5,11.1,8,18c-0.4,7-4.2,13.3-10.2,16.9l-75.8,46l75.7,45.4
				c6,3.6,9.8,9.9,10.3,16.8C-339.9,609.7-342.9,616.5-348.3,620.9z"/>
			<polygon class="st0" points="-447,645.7 -398.8,606.8 -447,577.9 			"/>
		</g>
	</g>
</g>
</svg>
