<?xml version="1.0" encoding="utf-8"?>
<!-- Generator: Adobe Illustrator 19.0.0, SVG Export Plug-In . SVG Version: 6.00 Build 0)  -->
<svg version="1.1" id="Layer_1" xmlns="http://www.w3.org/2000/svg" xmlns:xlink="http://www.w3.org/1999/xlink" x="0px" y="0px"
	 viewBox="-703 285 512 512" style="enable-background:new -703 285 512 512;" xml:space="preserve">
<style type="text/css">
	.st0{fill:#FFFFFF;}
</style>
<g>
	<path class="st0" d="M-513.4,414c-60.3,62.4-47.2,166,21.9,211.9c2.3,1.5,5.3,1.2,7.3-0.7c14.5-14.2,26.9-28,37.6-45.5
		c1.6-2.7,0.6-6.2-2.1-7.7c-10.5-5.7-21-16.4-26.9-27.7l0,0c-7.1-14.1-9.5-29.9-5.7-46.2c0,0,0,0,0,0c4.3-20.9,26.7-40.3,43.8-58.3
		c0,0-0.1,0-0.1,0l64.1-65.5c25.6-26.1,67.6-26.3,93.4-0.5c26.1,25.6,26.5,67.8,1,93.9l-38.8,39.9c-1.8,1.8-2.4,4.5-1.5,7
		c8.9,25.9,11.1,62.5,5.2,90.1c-0.2,0.8,0.8,1.3,1.3,0.7l82.7-84.4c52.8-53.9,52.4-141.7-1-195c-54.5-54.5-143.1-54-197,1
		l-84.7,86.5C-513.1,413.7-513.3,413.8-513.4,414L-513.4,414z"/>
	<path class="st0" d="M-358.8,637.7C-358.8,637.7-358.8,637.7-358.8,637.7c0,0,0.1,0,0.2-0.1c16.9-30.9,20.2-66.2,12.3-100.7l0,0
		l0,0c-7.5-30.7-28.1-61.2-56.1-80c-2.4-1.6-6.3-1.4-8.5,0.4c-14.2,11.5-28,26.2-37.2,44.9c-1.4,2.9-0.4,6.5,2.5,8.1
		c10.6,6.2,20.2,15.2,26.6,27.2l0,0c5,8.5,9.9,24.5,6.7,41.8c0,0,0,0,0,0c-3,22.9-26.1,43.9-44.5,62.8l0,0
		c-14,14.3-49.5,50.6-63.8,65.1c-25.6,26.1-67.8,26.5-93.9,1c-26.1-25.6-26.5-67.8-1-93.9l39-40.1c1.8-1.8,2.4-4.5,1.6-6.9
		c-8.7-26.5-11-62.3-5.6-89.9c0.2-0.8-0.8-1.3-1.3-0.7l-81.4,83.1c-53.4,54.5-52.9,143.1,1,197c54.5,53.4,142.7,52.5,196-2
		C-447.7,734.2-368.4,660.8-358.8,637.7L-358.8,637.7z"/>
</g>
</svg>
