<?xml version="1.0" encoding="utf-8"?>
<!-- Generator: Adobe Illustrator 19.0.0, SVG Export Plug-In . SVG Version: 6.00 Build 0)  -->
<svg version="1.1" id="Capa_1" xmlns="http://www.w3.org/2000/svg" xmlns:xlink="http://www.w3.org/1999/xlink" x="0px" y="0px"
	 viewBox="-719 301 480 480" style="enable-background:new -719 301 480 480;" xml:space="preserve">
<style type="text/css">
	.st0{fill:#FFFFFF;}
</style>
<path class="st0" d="M-440.1,318.6c-5.6-2.7-12.1-2-16.9,1.9L-612.6,445H-687c-17.6,0-32,14.4-32,32v128c0,17.7,14.4,32,32,32h74.4
	L-457,761.5c2.9,2.3,6.5,3.5,10,3.5c2.4,0,4.7-0.5,6.9-1.6c5.5-2.7,9.1-8.3,9.1-14.4V333C-431,326.9-434.5,321.3-440.1,318.6z"/>
<path class="st0" d="M-350,427.9c-6.3-6.2-16.4-6.1-22.6,0.1c-6.2,6.3-6.1,16.4,0.1,22.7c24.2,23.9,37.5,56,37.5,90.4
	c0,34.4-13.3,66.5-37.5,90.4c-6.3,6.2-6.3,16.3-0.1,22.6c3.1,3.2,7.3,4.7,11.4,4.7c4.1,0,8.1-1.5,11.3-4.6c30.3-29.9,47-70,47-113.1
	C-303,498-319.7,457.8-350,427.9z"/>
<path class="st0" d="M-304.9,382.8c-6.3-6.2-16.4-6.2-22.7,0.1c-6.2,6.3-6.1,16.4,0.1,22.6C-291,441.6-271,489.7-271,541
	s-20,99.4-56.4,135.5c-6.2,6.2-6.3,16.4-0.1,22.7c3.2,3.1,7.3,4.7,11.4,4.7c4.1,0,8.2-1.5,11.3-4.6c42.5-42.1,65.9-98.3,65.9-158.2
	C-239,481.1-262.4,424.9-304.9,382.8z"/>
</svg>
